<mxfile host="65bd71144e">
    <diagram id="Jj5ONUtduE62D7IfFVQv" name="Página-1">
        <mxGraphModel dx="1000" dy="723" grid="1" gridSize="10" guides="1" tooltips="1" connect="1" arrows="1" fold="1" page="1" pageScale="1" pageWidth="827" pageHeight="1169" math="0" shadow="0">
            <root>
                <mxCell id="0"/>
                <mxCell id="1" parent="0"/>
                <mxCell id="3" value="" style="rounded=0;whiteSpace=wrap;html=1;fillColor=#1ba1e2;fontColor=#ffffff;strokeColor=#006EAF;" parent="1" vertex="1">
                    <mxGeometry x="20" y="40" width="680" height="690" as="geometry"/>
                </mxCell>
                <mxCell id="4" value="" style="rounded=0;whiteSpace=wrap;html=1;fillColor=#f5f5f5;fontColor=#333333;strokeColor=#000000;strokeWidth=7;" parent="1" vertex="1">
                    <mxGeometry x="40" y="120" width="640" height="590" as="geometry"/>
                </mxCell>
                <mxCell id="5" value="&lt;font style=&quot;font-size: 16px&quot;&gt;ANÁLISIS METEOROLÓGICO&lt;/font&gt;" style="text;html=1;strokeColor=none;fillColor=none;align=center;verticalAlign=middle;whiteSpace=wrap;rounded=0;fontColor=#000000;fontStyle=1" parent="1" vertex="1">
                    <mxGeometry x="210" y="60" width="250" height="30" as="geometry"/>
                </mxCell>
                <mxCell id="7" value="" style="endArrow=none;html=1;fontColor=#000000;labelBackgroundColor=#000000;fillColor=#6d8764;strokeColor=#3A5431;" parent="1" edge="1">
                    <mxGeometry width="50" height="50" relative="1" as="geometry">
                        <mxPoint x="318" y="600" as="sourcePoint"/>
                        <mxPoint x="318" y="120" as="targetPoint"/>
                    </mxGeometry>
                </mxCell>
                <mxCell id="10" value="" style="rounded=0;whiteSpace=wrap;html=1;fillColor=#FFFFFF;fontColor=#000000;strokeColor=#000000;fontStyle=0;strokeWidth=2;" parent="1" vertex="1">
                    <mxGeometry x="460" y="137.5" width="160" height="20" as="geometry"/>
                </mxCell>
                <mxCell id="29" value="CONSULTAR" style="rounded=0;whiteSpace=wrap;html=1;fillColor=#999999;fontColor=#000000;strokeColor=#3A5431;fontStyle=0" parent="1" vertex="1">
                    <mxGeometry x="240" y="640" width="230" height="20" as="geometry"/>
                </mxCell>
                <mxCell id="30" value="SALIR" style="rounded=0;whiteSpace=wrap;html=1;fillColor=#999999;fontColor=#000000;strokeColor=#3A5431;fontStyle=0" parent="1" vertex="1">
                    <mxGeometry x="240" y="670" width="230" height="20" as="geometry"/>
                </mxCell>
                <mxCell id="90" value="RESULTADOS" style="rounded=0;whiteSpace=wrap;html=1;fillColor=#4D4D4D;fontColor=#000000;strokeColor=#3A5431;fontStyle=0" parent="1" vertex="1">
                    <mxGeometry x="330" y="177.5" width="320" height="262.5" as="geometry"/>
                </mxCell>
                <mxCell id="93" value="IMAGEN" style="rounded=0;whiteSpace=wrap;html=1;fillColor=#4D4D4D;fontColor=#000000;strokeColor=#3A5431;fontStyle=0" parent="1" vertex="1">
                    <mxGeometry x="380" y="460" width="220" height="160" as="geometry"/>
                </mxCell>
                <mxCell id="95" value="" style="edgeStyle=none;html=1;fontColor=#000000;" edge="1" parent="1" source="94" target="90">
                    <mxGeometry relative="1" as="geometry"/>
                </mxCell>
                <mxCell id="127" value="" style="edgeStyle=none;html=1;fontSize=16;fontColor=#000000;" edge="1" parent="1" source="94" target="90">
                    <mxGeometry relative="1" as="geometry"/>
                </mxCell>
                <mxCell id="94" value="&lt;b&gt;&lt;font style=&quot;font-size: 14px&quot;&gt;CIUDAD:&lt;/font&gt;&lt;/b&gt;" style="text;html=1;strokeColor=none;fillColor=none;align=center;verticalAlign=middle;whiteSpace=wrap;rounded=0;fontColor=#000000;" vertex="1" parent="1">
                    <mxGeometry x="384" y="132.5" width="60" height="30" as="geometry"/>
                </mxCell>
                <mxCell id="97" value="Coordenadas de la ubicación" style="text;html=1;strokeColor=none;fillColor=none;align=left;verticalAlign=middle;whiteSpace=wrap;rounded=0;fontSize=14;fontColor=#000000;" vertex="1" parent="1">
                    <mxGeometry x="110" y="190" width="200" height="30" as="geometry"/>
                </mxCell>
                <mxCell id="98" value="Velocidad del viento" style="text;html=1;strokeColor=none;fillColor=none;align=left;verticalAlign=middle;whiteSpace=wrap;rounded=0;fontSize=14;fontColor=#000000;" vertex="1" parent="1">
                    <mxGeometry x="110" y="220" width="200" height="30" as="geometry"/>
                </mxCell>
                <mxCell id="99" value="Humedad actual" style="text;html=1;strokeColor=none;fillColor=none;align=left;verticalAlign=middle;whiteSpace=wrap;rounded=0;fontSize=14;fontColor=#000000;" vertex="1" parent="1">
                    <mxGeometry x="110" y="250" width="200" height="30" as="geometry"/>
                </mxCell>
                <mxCell id="100" value="Temperatura actual" style="text;html=1;strokeColor=none;fillColor=none;align=left;verticalAlign=middle;whiteSpace=wrap;rounded=0;fontSize=14;fontColor=#000000;" vertex="1" parent="1">
                    <mxGeometry x="110" y="280" width="200" height="30" as="geometry"/>
                </mxCell>
                <mxCell id="101" value="Estado del clima" style="text;html=1;strokeColor=none;fillColor=none;align=left;verticalAlign=middle;whiteSpace=wrap;rounded=0;fontSize=14;fontColor=#000000;" vertex="1" parent="1">
                    <mxGeometry x="110" y="310" width="200" height="30" as="geometry"/>
                </mxCell>
                <mxCell id="102" value="Lluvia actual" style="text;html=1;strokeColor=none;fillColor=none;align=left;verticalAlign=middle;whiteSpace=wrap;rounded=0;fontSize=14;fontColor=#000000;" vertex="1" parent="1">
                    <mxGeometry x="110" y="340" width="200" height="30" as="geometry"/>
                </mxCell>
                <mxCell id="103" value="Nubosidad actual" style="text;html=1;strokeColor=none;fillColor=none;align=left;verticalAlign=middle;whiteSpace=wrap;rounded=0;fontSize=14;fontColor=#000000;" vertex="1" parent="1">
                    <mxGeometry x="110" y="370" width="200" height="30" as="geometry"/>
                </mxCell>
                <mxCell id="104" value="Luz ultra violeta" style="text;html=1;strokeColor=none;fillColor=none;align=left;verticalAlign=middle;whiteSpace=wrap;rounded=0;fontSize=14;fontColor=#000000;" vertex="1" parent="1">
                    <mxGeometry x="110" y="400" width="200" height="30" as="geometry"/>
                </mxCell>
                <mxCell id="105" value="Calidad del aire" style="text;html=1;strokeColor=none;fillColor=none;align=left;verticalAlign=middle;whiteSpace=wrap;rounded=0;fontSize=14;fontColor=#000000;" vertex="1" parent="1">
                    <mxGeometry x="110" y="430" width="200" height="30" as="geometry"/>
                </mxCell>
                <mxCell id="106" value="Estadisticas completas" style="text;html=1;strokeColor=none;fillColor=none;align=left;verticalAlign=middle;whiteSpace=wrap;rounded=0;fontSize=14;fontColor=#000000;" vertex="1" parent="1">
                    <mxGeometry x="110" y="460" width="200" height="30" as="geometry"/>
                </mxCell>
                <mxCell id="107" value="Índice de precipitación" style="text;html=1;strokeColor=none;fillColor=none;align=left;verticalAlign=middle;whiteSpace=wrap;rounded=0;fontSize=14;fontColor=#000000;" vertex="1" parent="1">
                    <mxGeometry x="110" y="490" width="200" height="30" as="geometry"/>
                </mxCell>
                <mxCell id="108" value="Índice de temperatura" style="text;html=1;strokeColor=none;fillColor=none;align=left;verticalAlign=middle;whiteSpace=wrap;rounded=0;fontSize=14;fontColor=#000000;" vertex="1" parent="1">
                    <mxGeometry x="110" y="520" width="200" height="30" as="geometry"/>
                </mxCell>
                <mxCell id="109" value="índice de presión atmosférica" style="text;html=1;strokeColor=none;fillColor=none;align=left;verticalAlign=middle;whiteSpace=wrap;rounded=0;fontSize=14;fontColor=#000000;" vertex="1" parent="1">
                    <mxGeometry x="110" y="550" width="200" height="30" as="geometry"/>
                </mxCell>
                <mxCell id="110" value="Índice de velocidad del tiempo" style="text;html=1;strokeColor=none;fillColor=none;align=left;verticalAlign=middle;whiteSpace=wrap;rounded=0;fontSize=14;fontColor=#000000;" vertex="1" parent="1">
                    <mxGeometry x="110" y="580" width="200" height="30" as="geometry"/>
                </mxCell>
                <mxCell id="111" value="" style="ellipse;whiteSpace=wrap;html=1;aspect=fixed;fontSize=14;fontColor=#000000;strokeColor=#B3B3B3;fillColor=#FFFFFF;strokeWidth=2;" vertex="1" parent="1">
                    <mxGeometry x="90" y="197.5" width="15" height="15" as="geometry"/>
                </mxCell>
                <mxCell id="112" value="" style="ellipse;whiteSpace=wrap;html=1;aspect=fixed;fontSize=14;fontColor=#000000;strokeColor=#B3B3B3;fillColor=#FFFFFF;strokeWidth=2;" vertex="1" parent="1">
                    <mxGeometry x="90" y="227.5" width="15" height="15" as="geometry"/>
                </mxCell>
                <mxCell id="113" value="" style="ellipse;whiteSpace=wrap;html=1;aspect=fixed;fontSize=14;fontColor=#000000;strokeColor=#B3B3B3;fillColor=#FFFFFF;strokeWidth=2;" vertex="1" parent="1">
                    <mxGeometry x="90" y="260" width="15" height="15" as="geometry"/>
                </mxCell>
                <mxCell id="114" value="" style="ellipse;whiteSpace=wrap;html=1;aspect=fixed;fontSize=14;fontColor=#000000;strokeColor=#B3B3B3;fillColor=#FFFFFF;strokeWidth=2;" vertex="1" parent="1">
                    <mxGeometry x="90" y="290" width="15" height="15" as="geometry"/>
                </mxCell>
                <mxCell id="115" value="" style="ellipse;whiteSpace=wrap;html=1;aspect=fixed;fontSize=14;fontColor=#000000;strokeColor=#B3B3B3;fillColor=#FFFFFF;strokeWidth=2;" vertex="1" parent="1">
                    <mxGeometry x="90" y="320" width="15" height="15" as="geometry"/>
                </mxCell>
                <mxCell id="116" value="" style="ellipse;whiteSpace=wrap;html=1;aspect=fixed;fontSize=14;fontColor=#000000;strokeColor=#B3B3B3;fillColor=#FFFFFF;strokeWidth=2;" vertex="1" parent="1">
                    <mxGeometry x="90" y="350" width="15" height="15" as="geometry"/>
                </mxCell>
                <mxCell id="117" value="" style="ellipse;whiteSpace=wrap;html=1;aspect=fixed;fontSize=14;fontColor=#000000;strokeColor=#B3B3B3;fillColor=#FFFFFF;strokeWidth=2;" vertex="1" parent="1">
                    <mxGeometry x="90" y="380" width="15" height="15" as="geometry"/>
                </mxCell>
                <mxCell id="118" value="" style="ellipse;whiteSpace=wrap;html=1;aspect=fixed;fontSize=14;fontColor=#000000;strokeColor=#B3B3B3;fillColor=#FFFFFF;strokeWidth=2;" vertex="1" parent="1">
                    <mxGeometry x="90" y="410" width="15" height="15" as="geometry"/>
                </mxCell>
                <mxCell id="119" value="" style="ellipse;whiteSpace=wrap;html=1;aspect=fixed;fontSize=14;fontColor=#000000;strokeColor=#B3B3B3;fillColor=#FFFFFF;strokeWidth=2;" vertex="1" parent="1">
                    <mxGeometry x="90" y="440" width="15" height="15" as="geometry"/>
                </mxCell>
                <mxCell id="120" value="" style="ellipse;whiteSpace=wrap;html=1;aspect=fixed;fontSize=14;fontColor=#000000;strokeColor=#B3B3B3;fillColor=#FFFFFF;strokeWidth=2;" vertex="1" parent="1">
                    <mxGeometry x="90" y="470" width="15" height="15" as="geometry"/>
                </mxCell>
                <mxCell id="121" value="" style="ellipse;whiteSpace=wrap;html=1;aspect=fixed;fontSize=14;fontColor=#000000;strokeColor=#B3B3B3;fillColor=#FFFFFF;strokeWidth=2;" vertex="1" parent="1">
                    <mxGeometry x="90" y="500" width="15" height="15" as="geometry"/>
                </mxCell>
                <mxCell id="122" value="" style="ellipse;whiteSpace=wrap;html=1;aspect=fixed;fontSize=14;fontColor=#000000;strokeColor=#B3B3B3;fillColor=#FFFFFF;strokeWidth=2;" vertex="1" parent="1">
                    <mxGeometry x="90" y="530" width="15" height="15" as="geometry"/>
                </mxCell>
                <mxCell id="123" value="" style="ellipse;whiteSpace=wrap;html=1;aspect=fixed;fontSize=14;fontColor=#000000;strokeColor=#B3B3B3;fillColor=#FFFFFF;strokeWidth=2;" vertex="1" parent="1">
                    <mxGeometry x="90" y="557.5" width="15" height="15" as="geometry"/>
                </mxCell>
                <mxCell id="124" value="" style="ellipse;whiteSpace=wrap;html=1;aspect=fixed;fontSize=14;fontColor=#000000;strokeColor=#B3B3B3;fillColor=#FFFFFF;strokeWidth=2;" vertex="1" parent="1">
                    <mxGeometry x="90" y="587.5" width="15" height="15" as="geometry"/>
                </mxCell>
                <mxCell id="126" value="" style="shape=image;verticalLabelPosition=bottom;labelBackgroundColor=#ffffff;verticalAlign=top;aspect=fixed;imageAspect=0;image=https://www.uis.edu.co/webUIS/imagenes/acercaUis/simbolos/logosimbolo1.gif;" vertex="1" parent="1">
                    <mxGeometry x="550" y="50" width="116.61" height="60" as="geometry"/>
                </mxCell>
            </root>
        </mxGraphModel>
    </diagram>
</mxfile>